<?xml version="1.0" encoding="UTF-8"?>
<svg width="23px" height="23px" viewBox="0 0 23 23" version="1.1" xmlns="http://www.w3.org/2000/svg" xmlns:xlink="http://www.w3.org/1999/xlink">
    <!-- Generator: sketchtool 51.2 (57519) - http://www.bohemiancoding.com/sketch -->
    <title>C9E1A8C8-C010-4934-A0E5-7DE2B7769D7D</title>
    <desc>Created with sketchtool.</desc>
    <defs></defs>
    <g id="Desktop-Login-2" stroke="none" stroke-width="1" fill="none" fill-rule="evenodd">
        <g id="Login---Security-Question-4" transform="translate(-866.000000, -186.000000)" fill="#FFFFFF">
            <g id="Modal" transform="translate(371.000000, 174.000000)">
                <g id="close-white-circle-filled" transform="translate(495.000000, 12.000000)">
                    <path d="M15.51695,8.0822 L12.26475,11.3344 L15.51695,14.5872571 L14.58775,15.5164571 L11.3348929,12.2636 L8.08269286,15.5164571 L7.15283571,14.5872571 L10.4056929,11.3344 L7.15283571,8.0822 L8.08269286,7.153 L11.3348929,10.4052 L14.58775,7.153 L15.51695,8.0822 Z M3.31643571,3.31594286 C-1.10547857,7.73785714 -1.10547857,14.9322571 3.31643571,19.3535143 C7.73769286,23.7747714 14.9314357,23.7754286 19.3540071,19.3535143 C23.7752643,14.9316 23.7752643,7.7372 19.3540071,3.31594286 C14.9320929,-1.10531429 7.73769286,-1.10531429 3.31643571,3.31594286 Z" id="Fill-7"></path>
                </g>
            </g>
        </g>
    </g>
</svg>