<?xml version="1.0" encoding="UTF-8"?>
<svg width="30px" height="30px" viewBox="0 0 30 30" version="1.1" xmlns="http://www.w3.org/2000/svg" xmlns:xlink="http://www.w3.org/1999/xlink">
    <!-- Generator: sketchtool 51.3 (57544) - http://www.bohemiancoding.com/sketch -->
    <title>1809B7FF-18F0-4947-B4E0-75C284CDF366</title>
    <desc>Created with sketchtool.</desc>
    <defs></defs>
    <g id="Page-1" stroke="none" stroke-width="1" fill="none" fill-rule="evenodd">
        <g id="1" transform="translate(-24.000000, -9.000000)">
            <g id="icon" transform="translate(24.000000, 9.000000)">
                <path d="M14.9980053,0 C6.71399654,0.000886524823 -0.000886511724,6.71764184 0,15.0022163 C0.00132976759,23.2859043 6.71798585,30.0013298 15.0019947,30 C23.2864467,29.9991135 30.0008865,23.2823582 30,14.998227 C29.9986702,6.71409574 23.2824574,-0.000886524823 14.9980053,0 Z" id="Fill-1" fill="#F57023"></path>
                <path d="M15.6099071,16.9110054 L13.380805,16.9110054 L13.0650155,8 L15.9256966,8 L15.6099071,16.9110054 Z M14.495356,18.3063859 C14.9473707,18.3063859 15.3111441,18.4329697 15.5866873,18.6861413 C15.8622305,18.9393129 16,19.2631321 16,19.6576087 C16,20.0461976 15.8622305,20.367073 15.5866873,20.6202446 C15.3111441,20.8734161 14.9473707,21 14.495356,21 C14.0495334,21 13.6888559,20.8734161 13.4133127,20.6202446 C13.1377695,20.367073 13,20.0461976 13,19.6576087 C13,19.2690198 13.1377695,18.9466725 13.4133127,18.6905571 C13.6888559,18.4344417 14.0495334,18.3063859 14.495356,18.3063859 Z" id="!" fill="#FFFFFF"></path>
            </g>
        </g>
    </g>
</svg>