<svg id="Layer_1" data-name="Layer 1" xmlns="http://www.w3.org/2000/svg" viewBox="0 0 45.55 60.3"><defs><style>.cls-1{fill:#245fac;}</style></defs><title>rbfcu-logo</title><polygon class="cls-1" points="17.5 16.37 0 16.37 14.27 26.98 8.72 43.8 22.8 33.43 36.89 43.8 31.4 26.98 45.55 16.37 27.98 16.37 22.8 0 17.5 16.37"/><path class="cls-1" d="M234.48,296.84h9.09a70.38,70.38,0,0,0,4.61-8.13,43.19,43.19,0,0,0,3.86-11.3Z" transform="translate(-233.63 -236.53)"/><path class="cls-1" d="M247.13,296.84h7.05a95.08,95.08,0,0,0,2.18-9.36c1-5.76,1.29-12,1.29-12Z" transform="translate(-233.63 -236.53)"/><path class="cls-1" d="M257.15,296.84h5.73s-.43-6.87-.66-9c-.29-2.68-1.45-10.41-1.45-10.41s-1.76,8-2.25,10.68C258.11,290.27,257.15,296.84,257.15,296.84Z" transform="translate(-233.63 -236.53)"/></svg>